HIERARCHY
ROOT mixamorig:Hips
{
	OFFSET -0.000008 104.274872 1.554316
	CHANNELS 6 Xposition Yposition Zposition Xrotation Yrotation Zrotation
	JOINT mixamorig:Spine
	{
		OFFSET -0.000005 10.181595 0.131519
		CHANNELS 6 Xposition Yposition Zposition Xrotation Yrotation Zrotation
		JOINT mixamorig:Spine1
		{
			OFFSET -0.000000 9.893959 -1.470707
			CHANNELS 6 Xposition Yposition Zposition Xrotation Yrotation Zrotation
			JOINT mixamorig:Spine2
			{
				OFFSET -0.000000 9.220757 -1.370641
				CHANNELS 6 Xposition Yposition Zposition Xrotation Yrotation Zrotation
				JOINT mixamorig:Neck
				{
					OFFSET 0.000001 16.740417 -2.049036
					CHANNELS 6 Xposition Yposition Zposition Xrotation Yrotation Zrotation
					JOINT mixamorig:Head
					{
						OFFSET 0.000000 9.617874 1.685006
						CHANNELS 6 Xposition Yposition Zposition Xrotation Yrotation Zrotation
						JOINT mixamorig:HeadTop_End
						{
							OFFSET 0.000002 22.037354 7.501101
							CHANNELS 6 Xposition Yposition Zposition Xrotation Yrotation Zrotation
							End Site
							{
								OFFSET 0.000168 2310.654297 -282.823242
							}
						}
					}
				}
				JOINT mixamorig:RightShoulder
				{
					OFFSET -4.569970 11.014908 -2.160885
					CHANNELS 6 Xposition Yposition Zposition Xrotation Yrotation Zrotation
					JOINT mixamorig:RightArm
					{
						OFFSET -10.592851 -0.524811 -2.232101
						CHANNELS 6 Xposition Yposition Zposition Xrotation Yrotation Zrotation
						JOINT mixamorig:RightForeArm
						{
							OFFSET -27.841511 0.000031 -0.000004
							CHANNELS 6 Xposition Yposition Zposition Xrotation Yrotation Zrotation
							JOINT mixamorig:RightHand
							{
								OFFSET -28.328831 -0.000015 0.000015
								CHANNELS 6 Xposition Yposition Zposition Xrotation Yrotation Zrotation
								JOINT mixamorig:RightHandThumb1
								{
									OFFSET -2.464806 -1.573990 2.681852
									CHANNELS 6 Xposition Yposition Zposition Xrotation Yrotation Zrotation
									JOINT mixamorig:RightHandThumb2
									{
										OFFSET -3.215179 -1.872803 1.924282
										CHANNELS 6 Xposition Yposition Zposition Xrotation Yrotation Zrotation
										JOINT mixamorig:RightHandThumb3
										{
											OFFSET -2.654831 -1.527969 1.512609
											CHANNELS 6 Xposition Yposition Zposition Xrotation Yrotation Zrotation
											JOINT mixamorig:RightHandThumb4
											{
												OFFSET -2.018814 -1.152008 1.108052
												CHANNELS 6 Xposition Yposition Zposition Xrotation Yrotation Zrotation
												End Site
												{
													OFFSET -188.809540 -114.533607 132.431396
												}
											}
										}
									}
								}
								JOINT mixamorig:RightHandIndex1
								{
									OFFSET -9.108284 -0.517868 2.259835
									CHANNELS 6 Xposition Yposition Zposition Xrotation Yrotation Zrotation
									JOINT mixamorig:RightHandIndex2
									{
										OFFSET -3.699989 0.000000 0.001215
										CHANNELS 6 Xposition Yposition Zposition Xrotation Yrotation Zrotation
										JOINT mixamorig:RightHandIndex3
										{
											OFFSET -2.850006 0.000031 -0.000522
											CHANNELS 6 Xposition Yposition Zposition Xrotation Yrotation Zrotation
											JOINT mixamorig:RightHandIndex4
											{
												OFFSET -2.772186 -0.000015 -0.000020
												CHANNELS 6 Xposition Yposition Zposition Xrotation Yrotation Zrotation
												End Site
												{
													OFFSET -277.218445 0.000000 -0.050231
												}
											}
										}
									}
								}
								JOINT mixamorig:RightHandMiddle1
								{
									OFFSET -9.532516 -0.000031 -0.000023
									CHANNELS 6 Xposition Yposition Zposition Xrotation Yrotation Zrotation
									JOINT mixamorig:RightHandMiddle2
									{
										OFFSET -3.700005 -0.000015 0.003713
										CHANNELS 6 Xposition Yposition Zposition Xrotation Yrotation Zrotation
										JOINT mixamorig:RightHandMiddle3
										{
											OFFSET -2.949974 0.000015 -0.002054
											CHANNELS 6 Xposition Yposition Zposition Xrotation Yrotation Zrotation
											JOINT mixamorig:RightHandMiddle4
											{
												OFFSET -2.946640 0.000000 -0.000156
												CHANNELS 6 Xposition Yposition Zposition Xrotation Yrotation Zrotation
												End Site
												{
													OFFSET -294.664337 0.000000 -0.113670
												}
											}
										}
									}
								}
								JOINT mixamorig:RightHandRing1
								{
									OFFSET -9.103600 -0.043076 -1.865134
									CHANNELS 6 Xposition Yposition Zposition Xrotation Yrotation Zrotation
									JOINT mixamorig:RightHandRing2
									{
										OFFSET -3.379288 0.000000 -0.001055
										CHANNELS 6 Xposition Yposition Zposition Xrotation Yrotation Zrotation
										JOINT mixamorig:RightHandRing3
										{
											OFFSET -2.889687 -0.000015 0.000379
											CHANNELS 6 Xposition Yposition Zposition Xrotation Yrotation Zrotation
											JOINT mixamorig:RightHandRing4
											{
												OFFSET -2.638809 -0.000015 0.000941
												CHANNELS 6 Xposition Yposition Zposition Xrotation Yrotation Zrotation
												End Site
												{
													OFFSET -263.880371 0.000000 0.516020
												}
											}
										}
									}
								}
								JOINT mixamorig:RightHandPinky1
								{
									OFFSET -8.076683 -0.486710 -3.806280
									CHANNELS 6 Xposition Yposition Zposition Xrotation Yrotation Zrotation
									JOINT mixamorig:RightHandPinky2
									{
										OFFSET -3.600014 -0.000015 -0.003747
										CHANNELS 6 Xposition Yposition Zposition Xrotation Yrotation Zrotation
										JOINT mixamorig:RightHandPinky3
										{
											OFFSET -2.099983 0.000000 -0.005739
											CHANNELS 6 Xposition Yposition Zposition Xrotation Yrotation Zrotation
											JOINT mixamorig:RightHandPinky4
											{
												OFFSET -2.115768 -0.000031 -0.003680
												CHANNELS 6 Xposition Yposition Zposition Xrotation Yrotation Zrotation
												End Site
												{
													OFFSET -211.577087 0.000000 -0.350686
												}
											}
										}
									}
								}
							}
						}
					}
				}
				JOINT mixamorig:LeftShoulder
				{
					OFFSET 4.570447 11.014725 -2.160855
					CHANNELS 6 Xposition Yposition Zposition Xrotation Yrotation Zrotation
					JOINT mixamorig:LeftArm
					{
						OFFSET 10.592371 -0.524597 -2.232119
						CHANNELS 6 Xposition Yposition Zposition Xrotation Yrotation Zrotation
						JOINT mixamorig:LeftForeArm
						{
							OFFSET 27.841532 -0.000031 0.000026
							CHANNELS 6 Xposition Yposition Zposition Xrotation Yrotation Zrotation
							JOINT mixamorig:LeftHand
							{
								OFFSET 28.328846 -0.000061 0.000022
								CHANNELS 6 Xposition Yposition Zposition Xrotation Yrotation Zrotation
								JOINT mixamorig:LeftHandThumb1
								{
									OFFSET 2.466141 -1.576172 2.681732
									CHANNELS 6 Xposition Yposition Zposition Xrotation Yrotation Zrotation
									JOINT mixamorig:LeftHandThumb2
									{
										OFFSET 3.217812 -1.872070 1.916482
										CHANNELS 6 Xposition Yposition Zposition Xrotation Yrotation Zrotation
										JOINT mixamorig:LeftHandThumb3
										{
											OFFSET 2.656029 -1.528778 1.514513
											CHANNELS 6 Xposition Yposition Zposition Xrotation Yrotation Zrotation
											JOINT mixamorig:LeftHandThumb4
											{
												OFFSET 2.020889 -1.154053 1.115139
												CHANNELS 6 Xposition Yposition Zposition Xrotation Yrotation Zrotation
												End Site
												{
													OFFSET 190.885437 -115.081749 130.048782
												}
											}
										}
									}
								}
								JOINT mixamorig:LeftHandIndex1
								{
									OFFSET 9.109314 -0.518021 2.259871
									CHANNELS 6 Xposition Yposition Zposition Xrotation Yrotation Zrotation
									JOINT mixamorig:LeftHandIndex2
									{
										OFFSET 3.699989 0.000000 -0.000322
										CHANNELS 6 Xposition Yposition Zposition Xrotation Yrotation Zrotation
										JOINT mixamorig:LeftHandIndex3
										{
											OFFSET 2.850006 0.000000 0.000352
											CHANNELS 6 Xposition Yposition Zposition Xrotation Yrotation Zrotation
											JOINT mixamorig:LeftHandIndex4
											{
												OFFSET 2.774864 -0.000031 -0.000027
												CHANNELS 6 Xposition Yposition Zposition Xrotation Yrotation Zrotation
												End Site
												{
													OFFSET 277.486267 0.000000 -0.009857
												}
											}
										}
									}
								}
								JOINT mixamorig:LeftHandMiddle1
								{
									OFFSET 9.533394 0.000061 0.000044
									CHANNELS 6 Xposition Yposition Zposition Xrotation Yrotation Zrotation
									JOINT mixamorig:LeftHandMiddle2
									{
										OFFSET 3.699989 -0.000015 -0.000231
										CHANNELS 6 Xposition Yposition Zposition Xrotation Yrotation Zrotation
										JOINT mixamorig:LeftHandMiddle3
										{
											OFFSET 2.949997 -0.000015 -0.000059
											CHANNELS 6 Xposition Yposition Zposition Xrotation Yrotation Zrotation
											JOINT mixamorig:LeftHandMiddle4
											{
												OFFSET 2.952896 0.000031 0.000063
												CHANNELS 6 Xposition Yposition Zposition Xrotation Yrotation Zrotation
												End Site
												{
													OFFSET 295.289337 0.000000 0.022810
												}
											}
										}
									}
								}
								JOINT mixamorig:LeftHandRing1
								{
									OFFSET 9.104523 -0.042999 -1.865074
									CHANNELS 6 Xposition Yposition Zposition Xrotation Yrotation Zrotation
									JOINT mixamorig:LeftHandRing2
									{
										OFFSET 3.150009 -0.000031 0.000043
										CHANNELS 6 Xposition Yposition Zposition Xrotation Yrotation Zrotation
										JOINT mixamorig:LeftHandRing3
										{
											OFFSET 2.949982 -0.000015 0.000040
											CHANNELS 6 Xposition Yposition Zposition Xrotation Yrotation Zrotation
											JOINT mixamorig:LeftHandRing4
											{
												OFFSET 2.644348 0.000000 0.000057
												CHANNELS 6 Xposition Yposition Zposition Xrotation Yrotation Zrotation
												End Site
												{
													OFFSET 264.434631 0.000000 0.012105
												}
											}
										}
									}
								}
								JOINT mixamorig:LeftHandPinky1
								{
									OFFSET 8.077789 -0.486847 -3.806259
									CHANNELS 6 Xposition Yposition Zposition Xrotation Yrotation Zrotation
									JOINT mixamorig:LeftHandPinky2
									{
										OFFSET 3.599953 0.000031 0.014727
										CHANNELS 6 Xposition Yposition Zposition Xrotation Yrotation Zrotation
										JOINT mixamorig:LeftHandPinky3
										{
											OFFSET 2.100021 0.000015 0.007705
											CHANNELS 6 Xposition Yposition Zposition Xrotation Yrotation Zrotation
											JOINT mixamorig:LeftHandPinky4
											{
												OFFSET 2.125504 0.000031 0.007517
												CHANNELS 6 Xposition Yposition Zposition Xrotation Yrotation Zrotation
												End Site
												{
													OFFSET 212.550781 0.000000 0.625752
												}
											}
										}
									}
								}
							}
						}
					}
				}
			}
		}
	}
	JOINT mixamorig:RightUpLeg
	{
		OFFSET -8.207787 -6.751648 -1.599560
		CHANNELS 6 Xposition Yposition Zposition Xrotation Yrotation Zrotation
		JOINT mixamorig:RightLeg
		{
			OFFSET -0.000002 -44.370117 0.345942
			CHANNELS 6 Xposition Yposition Zposition Xrotation Yrotation Zrotation
			JOINT mixamorig:RightFoot
			{
				OFFSET 0.000003 -44.423679 -3.043532
				CHANNELS 6 Xposition Yposition Zposition Xrotation Yrotation Zrotation
				JOINT mixamorig:RightToeBase
				{
					OFFSET -0.000002 -8.728671 10.710558
					CHANNELS 6 Xposition Yposition Zposition Xrotation Yrotation Zrotation
					JOINT mixamorig:RightToe_End
					{
						OFFSET -0.000001 -0.000679 9.278119
						CHANNELS 6 Xposition Yposition Zposition Xrotation Yrotation Zrotation
						End Site
						{
							OFFSET 0.000000 -0.067690 927.812134
						}
					}
				}
			}
		}
	}
	JOINT mixamorig:LeftUpLeg
	{
		OFFSET 8.207793 -6.751686 -1.599556
		CHANNELS 6 Xposition Yposition Zposition Xrotation Yrotation Zrotation
		JOINT mixamorig:LeftLeg
		{
			OFFSET -0.000004 -44.370014 0.346954
			CHANNELS 6 Xposition Yposition Zposition Xrotation Yrotation Zrotation
			JOINT mixamorig:LeftFoot
			{
				OFFSET -0.000001 -44.423672 -3.044401
				CHANNELS 6 Xposition Yposition Zposition Xrotation Yrotation Zrotation
				JOINT mixamorig:LeftToeBase
				{
					OFFSET -0.000002 -8.728669 10.710558
					CHANNELS 6 Xposition Yposition Zposition Xrotation Yrotation Zrotation
					JOINT mixamorig:LeftToe_End
					{
						OFFSET -0.000003 -0.000679 9.278133
						CHANNELS 6 Xposition Yposition Zposition Xrotation Yrotation Zrotation
						End Site
						{
							OFFSET 0.000000 -0.068021 927.813477
						}
					}
				}
			}
		}
	}
}
MOTION
Frames: 3
Frame Time: 0.033333
0.000006 104.270477 1.554256 0.000010 0.000003 -0.000113 -0.000005 10.181587 0.131522 0.000001 -0.000003 0.000084 -0.000000 9.893967 -1.470711 0.000001 0.000000 -0.000000 -0.000000 9.220802 -1.370642 0.000000 -0.000000 -0.000000 0.000001 16.740433 -2.049030 0.000000 -0.000000 -0.000000 0.000000 9.617859 1.685014 0.000000 0.000000 0.000000 0.000002 22.037384 7.501101 0.000000 -0.000000 0.000000 -4.569968 11.014880 -2.160881 0.000008 0.000001 -0.000038 -10.592874 -0.524769 -2.231909 75.618261 29.907312 -23.416335 -27.841530 0.000014 0.000551 -53.570769 105.275406 66.943176 -28.328808 0.000008 0.000023 -0.000326 -0.000044 0.000005 -2.464456 -1.573958 2.682391 -23.319248 -152.050229 38.425220 -3.215250 -1.872509 1.924614 151.806214 35.166226 30.599640 -2.654974 -1.527901 1.513085 153.150846 25.583619 -37.805049 -2.018834 -1.152007 1.108065 -0.000004 -0.000001 0.000002 -9.108395 -0.517583 2.260170 108.939748 17.400040 -24.255527 -3.700060 0.000308 0.001550 106.786517 14.100577 -18.872876 -2.850098 0.000368 -0.000205 104.819273 10.658836 -13.817106 -2.772164 -0.000014 -0.000019 0.000000 -0.000000 0.000000 -9.532598 0.000256 0.000269 98.783161 17.549158 -20.579240 -3.700073 0.000317 0.003998 99.368898 13.387760 -15.637015 -2.950055 0.000339 -0.001804 99.327842 11.264720 -13.241175 -2.946628 0.000001 -0.000157 -0.000001 0.000000 -0.000002 -9.103712 -0.042761 -1.864863 93.878771 19.354753 -20.634553 -3.379350 0.000302 -0.000782 95.874635 12.218623 -13.548461 -2.889748 0.000351 0.000663 100.441900 7.247531 -8.755027 -2.638812 -0.000015 0.000943 -0.000000 0.000001 -0.000002 -8.076764 -0.486391 -3.806039 83.412661 19.602940 -17.366275 -3.600062 0.000269 -0.003518 87.714560 10.164604 -9.420153 -2.100013 0.000329 -0.005493 90.696846 4.713288 -4.551836 -2.115768 -0.000043 -0.003685 0.000002 0.000000 -0.000000 4.570446 11.014691 -2.160851 -0.000018 0.000010 -0.000021 10.592390 -0.524484 -2.232341 73.628988 -8.665393 6.491500 27.841816 0.000034 -0.000215 93.925483 -73.217401 77.013484 28.328838 -0.000029 0.000022 0.000020 -0.000089 0.000000 2.466263 -1.576047 2.681826 -171.511979 10.146246 76.338572 3.217885 -1.871876 1.916429 167.304446 -19.078276 46.849702 2.656097 -1.528703 1.514518 134.702423 -29.290665 66.622806 2.020906 -1.154074 1.115138 -0.000000 0.000005 0.000006 9.109372 -0.517895 2.259745 75.700469 -18.871545 14.707311 3.700041 0.000100 -0.000467 72.907768 -19.488830 14.473529 2.850065 0.000125 0.000217 69.080205 -16.135741 11.144183 2.774872 -0.000021 -0.000029 -0.000003 0.000002 -0.000003 9.533461 0.000171 -0.000075 73.974610 -17.252257 13.030177 3.700046 0.000128 -0.000368 75.832360 -16.483622 12.872264 2.950077 0.000129 -0.000205 75.207971 -18.357001 14.190524 2.952866 -0.000002 0.000064 -0.000001 0.000000 -0.000000 9.104568 -0.042894 -1.865232 70.128667 -15.843394 11.157619 3.150053 0.000141 -0.000100 75.494675 -13.454706 10.437385 2.950032 0.000136 -0.000060 77.690198 -14.462048 11.669748 2.644315 0.000046 0.000056 0.000000 -0.000001 -0.000002 8.077839 -0.486764 -3.806390 61.310729 -15.986739 9.875798 3.599995 0.000141 0.014581 63.650635 -14.043157 9.070984 2.100037 0.000138 0.007550 68.005817 -13.143302 9.223572 2.125525 -0.000031 0.007517 0.000004 -0.000002 -0.000002 -8.207786 -6.751667 -1.599560 -0.077001 -0.000003 0.000080 -0.000002 -44.370110 0.345938 0.153719 -0.000000 -0.000000 0.000000 -44.423679 -3.043532 -0.076700 0.000000 -0.000002 -0.000006 -8.728667 10.710559 -0.000009 -0.000000 -0.000000 -0.000001 -0.000679 9.278123 0.000000 -0.000000 -0.000000 8.207792 -6.751710 -1.599556 -0.074518 -0.000003 0.000081 -0.000002 -44.370014 0.346960 0.148822 0.000002 0.000000 -0.000001 -44.423664 -3.044403 -0.074314 0.000000 -0.000002 -0.000004 -8.728671 10.710558 0.000007 -0.000000 -0.000000 0.000000 -0.000680 9.278137 -0.000000 0.000000 -0.000001 
0.000006 104.270477 1.554256 0.000010 0.000003 -0.000113 -0.000005 10.181587 0.131522 0.000001 -0.000003 0.000084 -0.000000 9.893967 -1.470711 0.000001 0.000000 -0.000000 -0.000000 9.220802 -1.370642 0.000000 -0.000000 -0.000000 0.000001 16.740433 -2.049030 0.000000 -0.000000 -0.000000 0.000000 9.617859 1.685014 0.000000 0.000000 0.000000 0.000002 22.037384 7.501101 0.000000 -0.000000 0.000000 -4.569968 11.014880 -2.160881 0.000008 0.000001 -0.000038 -10.592877 -0.524764 -2.231898 75.079960 29.642068 -22.986713 -27.841505 0.000012 0.000541 -50.334348 105.567629 63.486847 -28.328825 -0.000007 0.000031 -0.000319 -0.000046 0.000008 -2.464401 -1.573868 2.682344 -39.712304 -154.594584 7.369860 -3.215215 -1.872484 1.924624 147.620960 34.319716 35.152040 -2.654942 -1.527878 1.513061 150.152898 27.215826 -29.447575 -2.018834 -1.151995 1.108052 -0.000003 0.000001 0.000002 -9.108397 -0.517559 2.260152 106.681667 16.443346 -22.035271 -3.700078 0.000286 0.001552 104.535403 14.117696 -18.153000 -2.850093 0.000360 -0.000216 103.641441 11.811804 -14.987476 -2.772178 0.000000 -0.000023 -0.000000 0.000001 -0.000000 -9.532593 0.000268 0.000273 97.544527 17.369099 -19.939436 -3.700058 0.000331 0.003986 97.709852 12.484471 -14.162495 -2.950075 0.000348 -0.001759 100.314148 11.841866 -14.160972 -2.946630 0.000001 -0.000154 -0.000003 0.000002 -0.000001 -9.103700 -0.042762 -1.864857 92.893196 19.233927 -20.162771 -3.379327 0.000303 -0.000792 95.215637 9.457714 -10.374599 -2.889749 0.000363 0.000670 102.258450 6.814081 -8.504669 -2.638812 -0.000019 0.000939 -0.000002 0.000000 0.000001 -8.076763 -0.486421 -3.806032 82.739621 20.700741 -18.137199 -3.600040 0.000271 -0.003533 85.866666 9.699902 -8.691056 -2.100008 0.000315 -0.005479 91.185430 5.110214 -4.994679 -2.115767 -0.000038 -0.003677 0.000006 -0.000003 -0.000000 4.570446 11.014691 -2.160851 -0.000018 0.000010 -0.000021 10.592375 -0.524498 -2.232327 72.987169 -2.061092 1.524932 27.841808 0.000055 -0.000217 94.415733 -74.063894 78.355609 28.328846 -0.000029 0.000015 0.000018 -0.000089 0.000000 2.466234 -1.575880 2.681789 -160.378292 -16.805887 31.831916 3.217881 -1.871980 1.916491 163.566310 -9.721476 79.082136 2.656103 -1.528728 1.514560 139.300752 -26.834102 75.250612 2.020879 -1.154066 1.115145 0.000001 -0.000002 0.000004 9.109414 -0.517890 2.259749 79.935664 -23.875382 20.085810 3.700043 0.000127 -0.000458 76.251112 -17.678104 13.930562 2.850031 0.000153 0.000219 74.821908 -13.476972 10.326729 2.774892 -0.000032 -0.000026 0.000001 -0.000001 -0.000002 9.533481 0.000158 -0.000070 76.661627 -23.125262 18.368974 3.700058 0.000144 -0.000378 79.440311 -14.804848 12.318909 2.950035 0.000157 -0.000217 79.515198 -12.055559 10.043044 2.952864 -0.000015 0.000064 -0.000000 -0.000000 0.000001 9.104614 -0.042896 -1.865207 75.284811 -21.937453 17.005479 3.150049 0.000164 -0.000098 77.934494 -15.048715 12.197710 2.950022 0.000148 -0.000084 78.540209 -10.692412 8.752157 2.644329 0.000030 0.000063 0.000002 -0.000000 -0.000001 8.077865 -0.486759 -3.806379 67.262624 -22.412540 15.442851 3.600001 0.000114 0.014567 66.331539 -18.192791 12.308419 2.100029 0.000141 0.007561 68.477352 -12.121531 8.600681 2.125508 0.000002 0.007518 0.000002 0.000001 -0.000002 -8.207786 -6.751667 -1.599560 -0.077001 -0.000003 0.000080 -0.000002 -44.370110 0.345938 0.153719 -0.000000 -0.000000 0.000000 -44.423679 -3.043532 -0.076700 0.000000 -0.000002 -0.000006 -8.728667 10.710559 -0.000009 -0.000000 -0.000000 -0.000001 -0.000679 9.278123 0.000000 -0.000000 -0.000000 8.207792 -6.751710 -1.599556 -0.074518 -0.000003 0.000081 -0.000002 -44.370014 0.346960 0.148822 0.000002 0.000000 -0.000001 -44.423664 -3.044403 -0.074314 0.000000 -0.000002 -0.000004 -8.728671 10.710558 0.000007 -0.000000 -0.000000 0.000000 -0.000680 9.278137 -0.000000 0.000000 -0.000001 
0.000006 104.270477 1.554256 0.000010 0.000003 -0.000113 -0.000005 10.181587 0.131522 0.000001 -0.000003 0.000084 -0.000000 9.893967 -1.470711 0.000001 0.000000 -0.000000 -0.000000 9.220802 -1.370642 0.000000 -0.000000 -0.000000 0.000001 16.740433 -2.049030 0.000000 -0.000000 -0.000000 0.000000 9.617859 1.685014 0.000000 0.000000 0.000000 0.000002 22.037384 7.501101 0.000000 -0.000000 0.000000 -4.569968 11.014880 -2.160881 0.000008 0.000001 -0.000038 -10.592867 -0.524794 -2.231867 75.203156 38.599516 -30.186933 -27.841522 0.000013 0.000564 -49.142740 104.273882 60.921346 -28.328814 0.000023 0.000033 -0.000320 -0.000046 0.000004 -2.464397 -1.573848 2.682362 -39.392361 -154.275873 7.944111 -3.215231 -1.872493 1.924615 147.733085 34.364382 35.174788 -2.654963 -1.527864 1.513072 150.680325 27.122570 -29.618002 -2.018826 -1.152014 1.108063 -0.000004 0.000001 0.000005 -9.108378 -0.517556 2.260166 107.294916 16.235382 -21.999230 -3.700062 0.000305 0.001557 104.854605 13.895459 -17.970219 -2.850106 0.000360 -0.000213 103.382836 11.642435 -14.705792 -2.772171 -0.000000 -0.000020 0.000001 -0.000003 0.000000 -9.532597 0.000261 0.000275 97.411106 17.307822 -19.824199 -3.700077 0.000320 0.004000 97.984699 12.642694 -14.411585 -2.950062 0.000319 -0.001763 100.391719 11.975471 -14.339825 -2.946630 0.000014 -0.000157 0.000000 -0.000004 -0.000001 -9.103705 -0.042770 -1.864849 93.079988 19.479927 -20.486005 -3.379346 0.000319 -0.000797 95.699952 9.872008 -10.919669 -2.889773 0.000367 0.000684 102.899600 7.080825 -8.936628 -2.638837 -0.000003 0.000938 -0.000000 -0.000000 0.000002 -8.076751 -0.486406 -3.806022 82.355559 20.851794 -18.149940 -3.600044 0.000274 -0.003537 85.684730 9.753174 -8.712740 -2.100014 0.000322 -0.005490 91.235017 5.142599 -5.031991 -2.115764 -0.000035 -0.003677 0.000001 -0.000002 -0.000005 4.570446 11.014691 -2.160851 -0.000018 0.000010 -0.000021 10.592400 -0.524480 -2.232364 72.402000 -13.081712 9.594146 27.841810 0.000029 -0.000180 91.215981 -75.686153 76.867618 28.328831 -0.000029 0.000027 0.000022 -0.000088 0.000000 2.466206 -1.575848 2.681831 -145.498110 -20.641262 23.051224 3.217530 -1.871957 1.916637 136.364440 -7.664512 177.287300 2.656074 -1.528745 1.514569 143.528120 -22.923508 90.516549 2.020879 -1.154084 1.115150 0.000001 0.000003 0.000004 9.109407 -0.517903 2.259763 85.358541 -28.860305 26.683188 3.700058 0.000147 -0.000439 88.526150 -22.326939 21.791555 2.850072 0.000182 0.000219 88.458490 -16.119953 15.696084 2.774870 -0.000032 -0.000029 0.000004 -0.000001 0.000001 9.533496 0.000180 -0.000062 84.681293 -24.613218 22.477768 3.700069 0.000180 -0.000357 92.139177 -16.695839 17.318744 2.950059 0.000189 -0.000201 93.676618 -13.209123 14.079777 2.952859 -0.000014 0.000065 0.000002 0.000000 -0.000000 9.104592 -0.042886 -1.865211 81.793038 -22.800450 19.814725 3.150053 0.000182 -0.000098 88.825620 -15.854846 15.538974 2.950028 0.000186 -0.000084 90.794736 -11.193051 11.350147 2.644317 0.000047 0.000051 0.000002 -0.000002 0.000000 8.077851 -0.486748 -3.806409 72.690760 -22.667820 17.246549 3.600005 0.000160 0.014590 74.599736 -17.762277 13.989170 2.100044 0.000154 0.007553 76.343005 -12.548565 10.264321 2.125497 0.000000 0.007517 -0.000002 0.000004 0.000002 -8.207786 -6.751667 -1.599560 -0.077001 -0.000003 0.000080 -0.000002 -44.370110 0.345938 0.153719 -0.000000 -0.000000 0.000000 -44.423679 -3.043532 -0.076700 0.000000 -0.000002 -0.000006 -8.728667 10.710559 -0.000009 -0.000000 -0.000000 -0.000001 -0.000679 9.278123 0.000000 -0.000000 -0.000000 8.207792 -6.751710 -1.599556 -0.074518 -0.000003 0.000081 -0.000002 -44.370014 0.346960 0.148822 0.000002 0.000000 -0.000001 -44.423664 -3.044403 -0.074314 0.000000 -0.000002 -0.000004 -8.728671 10.710558 0.000007 -0.000000 -0.000000 0.000000 -0.000680 9.278137 -0.000000 0.000000 -0.000001 
